<svg width="32" height="32" viewBox="0 0 32 32" fill="none" xmlns="http://www.w3.org/2000/svg">
<path d="M17.3333 6.66668C17.3333 5.9303 16.7364 5.33334 16 5.33334C15.2636 5.33334 14.6667 5.9303 14.6667 6.66668V14.6667H6.66668C5.9303 14.6667 5.33334 15.2636 5.33334 16C5.33334 16.7364 5.9303 17.3333 6.66668 17.3333H14.6667V25.3333C14.6667 26.0697 15.2636 26.6667 16 26.6667C16.7364 26.6667 17.3333 26.0697 17.3333 25.3333V17.3333H25.3333C26.0697 17.3333 26.6667 16.7364 26.6667 16C26.6667 15.2636 26.0697 14.6667 25.3333 14.6667H17.3333V6.66668Z" fill="#21212B"/>
</svg>
