<svg width="32" height="32" viewBox="0 0 32 32" fill="none" xmlns="http://www.w3.org/2000/svg">
<path d="M21.6569 23.5424C22.1776 24.0631 23.0218 24.0631 23.5425 23.5424C24.0632 23.0217 24.0632 22.1775 23.5425 21.6568L17.8857 16L23.5425 10.3431C24.0632 9.82245 24.0632 8.97823 23.5425 8.45753C23.0218 7.93683 22.1776 7.93683 21.6569 8.45753L16.0001 14.1144L10.3432 8.4575C9.82251 7.9368 8.97829 7.9368 8.45759 8.4575C7.93689 8.9782 7.93689 9.82242 8.45759 10.3431L14.1145 16L8.45759 21.6569C7.93689 22.1776 7.93689 23.0218 8.45759 23.5425C8.97829 24.0632 9.82251 24.0632 10.3432 23.5425L16.0001 17.8856L21.6569 23.5424Z" fill="#ffffff"/>
</svg>
