<svg width="32" height="32" viewBox="0 0 32 32" fill="none" xmlns="http://www.w3.org/2000/svg">
<path d="M13.3333 24C12.597 24 12 23.4031 12 22.6667L12 13.3333C12 12.597 12.597 12 13.3333 12C14.0697 12 14.6667 12.597 14.6667 13.3333L14.6667 22.6667C14.6667 23.4031 14.0697 24 13.3333 24Z" fill="#ffffff"/>
<path d="M17.3333 22.6667C17.3333 23.4031 17.9303 24 18.6667 24C19.403 24 20 23.4031 20 22.6667V13.3333C20 12.597 19.403 12 18.6667 12C17.9303 12 17.3333 12.597 17.3333 13.3333V22.6667Z" fill="#ffffff"/>
<path fill-rule="evenodd" clip-rule="evenodd" d="M10.8706 4.78432L9.86667 6.66667H5.33333C4.59695 6.66667 4 7.26363 4 8.00001C4 8.73638 4.59695 9.33334 5.33333 9.33334H5.40884L6.50226 28.0777C6.54339 28.7827 7.12711 29.3333 7.83333 29.3333H24.1667C24.8729 29.3333 25.4566 28.7827 25.4977 28.0777L26.5912 9.33334H26.6667C27.403 9.33334 28 8.73638 28 8.00001C28 7.26363 27.403 6.66667 26.6667 6.66667H22.1333L21.1294 4.78432C20.4342 3.48087 19.0772 2.66667 17.6 2.66667H14.4C12.9228 2.66667 11.5658 3.48086 10.8706 4.78432ZM14.4 5.33334C13.9076 5.33334 13.4553 5.60474 13.2235 6.03922L12.8889 6.66667H19.1111L18.7765 6.03922C18.5447 5.60474 18.0924 5.33334 17.6 5.33334H14.4ZM23.92 9.33334H8.08004L9.09116 26.6667H22.9088L23.92 9.33334Z" fill="#ffffff"/>
</svg>
